<?xml version="1.0" encoding="iso-8859-1"?>
<!-- Generator: Adobe Illustrator 21.0.0, SVG Export Plug-In . SVG Version: 6.00 Build 0)  -->
<svg xmlns="http://www.w3.org/2000/svg" xmlns:xlink="http://www.w3.org/1999/xlink" version="1.1" id="Capa_1" x="0px" y="0px" viewBox="0 0 512 512" style="enable-background:new 0 0 512 512;" xml:space="preserve" width="512" height="512">
<g>
	<g>
		<g>
			<g>
				<g>
					<g>
						<g>
							<g>
								<g>
									<g>
										<g>
											<circle style="fill:#495F7A;" cx="256" cy="256" r="256"/>
										</g>
									</g>
								</g>
							</g>
						</g>
					</g>
				</g>
			</g>
		</g>
	</g>
	<path style="fill:#31465B;" d="M340.356,497.757c98.39-34.329,169.405-127.007,171.579-236.583L400.543,149.783l-16.63,27.256   L305,98.126l-154.745,209.53L340.356,497.757z"/>
	<g>
		<rect x="150.255" y="98.127" style="fill:#FFFFFF;" width="154.745" height="209.53"/>
	</g>
	<g>
		<rect x="150.255" y="206.5" style="fill:#E9EDF5;" width="154.745" height="101.156"/>
	</g>
	<g>
		<path style="fill:#FFBEAA;" d="M410.149,162.743c-5.352-11.975-16.826-20.636-30.424-21.964    c-4.365-0.427-8.705-1.083-13.021-1.857L305,127.858v27.308l27.756,7.541c0,0-131.203-0.017-147.74,0.024    c-6.398,0.016-11.57,5.207-11.57,11.605v0.031c0,6.41,5.196,11.606,11.606,11.606h86.993v7.877h-95.32    c-6.409,0-11.605,5.196-11.605,11.605v0.833c0,6.41,5.196,11.605,11.605,11.605h101.986v7.878h-87.397    c-6.409,0-11.605,5.196-11.605,11.605v0.833c0,6.41,5.196,11.606,11.606,11.606h95.73v7.878h-68.089    c-6.39,0-11.871,4.999-11.988,11.388c-0.119,6.509,5.122,11.823,11.604,11.823H371.66l0,0    c14.661-1.295,27.233-10.037,34.096-22.238c0.006-0.01-0.012-0.017,0-0.017c0,0,50.898,0,106.21-0.002    c0.009-0.883,0.033-1.764,0.033-2.649c0-32.898-6.212-64.344-17.517-93.237c-46.65-0.001-84.305-0.001-84.305-0.001    C410.166,162.762,410.154,162.754,410.149,162.743z"/>
	</g>
	<g>
		<path style="fill:#FAA68E;" d="M165.121,206.5c0.113,6.312,5.256,11.395,11.595,11.395h101.986v7.878h-87.397    c-6.409,0-11.605,5.196-11.605,11.605v0.833c0,6.41,5.196,11.606,11.606,11.606h95.73v7.878h-68.089    c-6.39,0-11.871,4.999-11.988,11.388c-0.119,6.509,5.122,11.823,11.604,11.823h155.493l0,0    c14.661-1.295,27.233-10.037,34.096-22.238c0.006-0.01-0.012-0.017,0-0.017l103.806-0.002c0.009-0.883,0.033-1.764,0.033-2.649    c0-16.937-1.658-33.483-4.798-49.5H165.121z"/>
	</g>
	<g>
		<path style="fill:#FF583E;" d="M422.597,273.388H511.4c0.386-5.748,0.6-11.542,0.6-17.388c0-37.894-8.242-73.86-23.017-106.217    h-66.385V273.388z"/>
	</g>
	<g>
		<path style="fill:#EF2A1B;" d="M422.597,206.5v66.888H511.4c0.386-5.748,0.6-11.542,0.6-17.388c0-16.937-1.658-33.484-4.798-49.5    H422.597z"/>
	</g>
	<g>
		<path style="fill:#FFC200;" d="M107.5,464.547C149.38,494.422,200.636,512,256,512c55.364,0,106.62-17.578,148.5-47.453V335h-297    V464.547z"/>
	</g>
	<g>
		<path style="fill:#FF9500;" d="M255.905,335v176.999c0.032,0,0.063,0.001,0.095,0.001c55.364,0,106.62-17.578,148.5-47.453V335    H255.905z"/>
	</g>
</g>















</svg>
